<?xml version="1.0" encoding="UTF-8"?><!DOCTYPE svg PUBLIC "-//W3C//DTD SVG 1.1//EN" "http://www.w3.org/Graphics/SVG/1.1/DTD/svg11.dtd"><svg xmlns="http://www.w3.org/2000/svg"><symbol id="icon-arrow-left" viewBox="0 0 22 16">
    <path fill-rule="evenodd" d="M7.293 15.707a1 1 0 1 0 1.414-1.414L3.414 9H21a1 1 0 0 0 0-2H3.414l5.293-5.293A1 1 0 0 0 7.293.293l-7 7A.996.996 0 0 0 0 8m.076.383a.997.997 0 0 0 .217.324l7 7M.076 8.383A.996.996 0 0 1 0 8.009l.076.374z"/>
</symbol><symbol id="icon-arrow-next" viewBox="0 0 8 14">
    <path fill-rule="evenodd" clip-rule="evenodd" d="M.293 13.707a1 1 0 0 1 0-1.414L5.586 7 .293 1.707A1 1 0 0 1 1.707.293l6 6a1 1 0 0 1 0 1.414l-6 6a1 1 0 0 1-1.414 0z"/>
</symbol><symbol id="icon-arrow-prev" viewBox="0 0 8 14">
    <path fill-rule="evenodd" clip-rule="evenodd" d="M7.707.293a1 1 0 0 1 0 1.414L2.414 7l5.293 5.293a1 1 0 1 1-1.414 1.414l-6-6a1 1 0 0 1 0-1.414l6-6a1 1 0 0 1 1.414 0z"/>
</symbol><symbol id="icon-arrow-right" viewBox="0 0 22 16">
    <path fill-rule="evenodd" clip-rule="evenodd" d="M14.707.293a1 1 0 1 0-1.414 1.414L18.586 7H1a1 1 0 0 0 0 2h17.586l-5.293 5.293a1 1 0 0 0 1.414 1.414l7-7A.996.996 0 0 0 22 8m-.076-.383a.997.997 0 0 0-.217-.324l-7-7m7.217 7.324a.996.996 0 0 1 .076.374z"/>
</symbol><symbol id="icon-arrows" viewBox="0 0 12 18">
    <path fill-rule="evenodd" clip-rule="evenodd" d="M6.664 1.128a1 1 0 0 0-1.328 0l-4.5 4a1 1 0 0 0 1.328 1.494L6 3.213l3.836 3.41a1 1 0 1 0 1.328-1.495l-4.5-4zm-4.5 11a1 1 0 0 0-1.328 1.494l4.5 4a1 1 0 0 0 1.328 0l4.5-4a1 1 0 0 0-1.328-1.494L6 15.538l-3.836-3.41z"/>

</symbol>

<symbol id="icon-dribbble" viewBox="0 0 16 16">
    <path fill-rule="evenodd" clip-rule="evenodd" d="M8 0C3.6 0 0 3.6 0 8s3.6 8 8 8 8-3.6 8-8-3.6-8-8-8zm2.2 7.4s-.2-.6-.3-.8c1.7-.8 2.8-1.7 3.2-2.2.7.9 1.1 2 1.2 3.2-.8-.2-2.6-.5-4.1-.2zM9.1 5.1C8.3 3.7 7.4 2.5 7 1.8c1.9-.5 3.6.1 4.9 1.3-.4.5-1.2 1.3-2.8 2zm-4-2.6c.4.5 1.2 1.7 2 3.2-2.2.5-4.2.6-5.1.6.4-1.6 1.6-3 3.1-3.8zM8 7.3c.1.2.2.4.3.5-2.8.9-4.6 3.2-5.2 4.1-.8-1.1-1.3-2.4-1.3-3.7.9-.1 3.5-.2 6.2-.9zm1 2.2c.7 2 1.1 3.6 1.2 4.4-2.1.7-4.5.3-5.8-.8.4-.7 1.7-2.5 4.6-3.6zm2.9 3.4c-.2-.8-.5-2.2-1.1-3.9 1.1-.2 2.7 0 3.3.2-.3 1.5-1.1 2.8-2.2 3.7z"/>
</symbol><symbol id="icon-email" viewBox="0 0 18 15">
    <path fill-rule="evenodd" clip-rule="evenodd" d="M2.422.267A2.133 2.133 0 0 0 .29 2.4v9.956c0 1.178.955 2.133 2.133 2.133h12.8a2.133 2.133 0 0 0 2.134-2.133V2.4A2.133 2.133 0 0 0 15.222.267h-12.8zM1.712 2.4c0-.393.318-.711.71-.711h12.8c.393 0 .712.318.712.711v9.956a.711.711 0 0 1-.712.71h-12.8a.711.711 0 0 1-.71-.71V2.4zm2.635.92a.711.711 0 1 0-1.005 1.005l4.977 4.978a.711.711 0 0 0 1.006 0l4.978-4.978a.711.711 0 1 0-1.006-1.006L8.822 7.794 4.347 3.32zM5.77 9.007a.711.711 0 0 1 0 1.006l-1.422 1.422a.711.711 0 0 1-1.005-1.005l1.422-1.423a.711.711 0 0 1 1.005 0zm7.112 0a.711.711 0 1 0-1.006 1.006l1.422 1.422a.711.711 0 0 0 1.006-1.005l-1.422-1.423z"/>
</symbol>
<symbol id="icon-github" viewBox="0 0 16 16">
    <path fill-rule="evenodd" clip-rule="evenodd" d="M8 0C3.582 0 0 3.582 0 8c0 3.54 2.29 6.533 5.47 7.59.4.074.547-.174.547-.386 0-.19-.007-.868-.012-1.59-2.225.48-2.695-1.072-2.695-1.072-.364-.925-.888-1.17-.888-1.17-.725-.496.055-.487.055-.487.803.056 1.225.826 1.225.826.714 1.22 1.873.87 2.33.665.072-.517.28-.87.51-1.07-1.785-.202-3.647-.893-3.647-3.96 0-.875.31-1.588.823-2.148-.082-.202-.36-1.015.078-2.117 0 0 .67-.215 2.2.82.64-.178 1.32-.266 2-.27.68.004 1.36.092 2 .27 1.53-1.035 2.2-.82 2.2-.82.44 1.102.16 1.915.08 2.117.51.56.82 1.273.82 2.148 0 3.073-1.867 3.754-3.65 3.95.287.25.54.739.54 1.49 0 1.077-.01 1.943-.01 2.206 0 .214.145.464.55.385C13.71 14.533 16 11.54 16 8c0-4.418-3.582-8-8-8z"/>
</symbol>



<symbol id="icon-linkedin" viewBox="0 0 50 50">
    <path fill-rule="evenodd" clip-rule="evenodd" d="M41,4H9C6.24,4,4,6.24,4,9v32c0,2.76,2.24,5,5,5h32c2.76,0,5-2.24,5-5V9C46,6.24,43.76,4,41,4z M17,20v19h-6V20H17z M11,14.47c0-1.4,1.2-2.47,3-2.47s2.93,1.07,3,2.47c0,1.4-1.12,2.53-3,2.53C12.2,17,11,15.87,11,14.47z M39,39h-6c0,0,0-9.26,0-10 c0-2-1-4-3.5-4.04h-0.08C27,24.96,26,27.02,26,29c0,0.91,0,10,0,10h-6V20h6v2.56c0,0,1.93-2.56,5.81-2.56 c3.97,0,7.19,2.73,7.19,8.26V39z"></path>
</symbol>


<symbol id="icon-instagram" viewBox="0 0 16 16">
    <circle cx="12.145" cy="3.892" r=".96"/>
    <path fill-rule="evenodd" clip-rule="evenodd" d="M4 8c0 2.206 1.794 4 4 4s4-1.794 4-4-1.794-4-4-4-4 1.794-4 4zm2 0c0-1.103.897-2 2-2s2 .897 2 2-.897 2-2 2-2-.897-2-2z"/>
    <path fill-rule="evenodd" clip-rule="evenodd" d="M4 16h8c2.056 0 4-1.944 4-4V4c0-2.056-1.944-4-4-4H4C1.944 0 0 1.944 0 4v8c0 2.056 1.944 4 4 4zM2 4c0-.935 1.065-2 2-2h8c.935 0 2 1.065 2 2v8c0 .935-1.065 2-2 2H4c-.953 0-2-1.047-2-2V4z"/>
</symbol>
<symbol id="icon-message" viewBox="0 0 18 18">
    <path fill-rule="evenodd" clip-rule="evenodd" d="M.5 2.875a2 2 0 0 1 2-2h13a2 2 0 0 1 2 2v10a2 2 0 0 1-2 2h-3.532l-2.2 2.64a1 1 0 0 1-1.536 0l-2.2-2.64H2.5a2 2 0 0 1-2-2v-10zm15 0h-13v10h4a1 1 0 0 1 .768.36L9 15.313l1.732-2.078a1 1 0 0 1 .768-.36h4v-10zm-12 3a1 1 0 0 1 1-1h9a1 1 0 1 1 0 2h-9a1 1 0 0 1-1-1zm1 3a1 1 0 1 0 0 2h9a1 1 0 1 0 0-2h-9z"/>
</symbol><symbol id="icon-phone" viewBox="0 0 17 18">
    <path fill-rule="evenodd" clip-rule="evenodd" d="M6.689 2.978c0-.393.318-.711.71-.711h7.112c.393 0 .711.318.711.71v4.267a.711.711 0 0 1-.711.712H8.822c-.11 0-.22.025-.318.075l-1.815.907v-5.96zm.71-2.134a2.133 2.133 0 0 0-2.132 2.134v7.11a.711.711 0 0 0 1.029.637L8.99 9.378h5.521a2.133 2.133 0 0 0 2.133-2.134V2.978A2.133 2.133 0 0 0 14.511.844H7.4zM2.423 2.267A2.133 2.133 0 0 0 .29 4.4v11.378c0 1.178.955 2.133 2.133 2.133h7.823a2.133 2.133 0 0 0 2.133-2.133V10.8a.711.711 0 0 0-1.422 0v4.978a.711.711 0 0 1-.711.71H2.422a.711.711 0 0 1-.71-.71V4.4c0-.393.318-.711.71-.711h1.423a.711.711 0 0 0 0-1.422H2.422z"/>
</symbol><symbol id="icon-place" viewBox="0 0 18 18">
    <path fill-rule="evenodd" clip-rule="evenodd" d="M9.273.85a.711.711 0 0 0-.9 0L.55 7.25a.711.711 0 0 0 .9 1.1L8.822 2.32l5.85 4.786a.711.711 0 1 0 .901-1.1L9.273.85zM3.845 9.222a.711.711 0 0 0-1.423 0v7.111c0 .393.319.711.711.711h6.4a.711.711 0 1 0 0-1.422H3.845v-6.4zm9.931 0a2.041 2.041 0 0 0-2.11 2.008c.002.242.113.6.36 1.053.238.44.566.9.907 1.328.31.386.62.732.867.996.248-.264.558-.61.867-.996.342-.427.67-.888.908-1.328.246-.453.357-.81.359-1.053a2.042 2.042 0 0 0-2.158-2.008zm2.869 2.003h.71c0 .599-.244 1.21-.53 1.737a10.784 10.784 0 0 1-1.047 1.537 18.529 18.529 0 0 1-1.45 1.602l-.026.025-.008.008-.003.003-.49-.515-.492.515-.003-.003-.007-.008-.027-.025a17.888 17.888 0 0 1-.432-.44c-.276-.29-.646-.697-1.017-1.162-.37-.462-.754-.995-1.048-1.537-.286-.527-.53-1.138-.53-1.737v-.01A3.464 3.464 0 0 1 13.8 7.8a3.464 3.464 0 0 1 3.556 3.416l-.711.01zm-3.336 4.912l.491-.515.491.515a.712.712 0 0 1-.982 0zm.491-4.07a.711.711 0 1 0 0-1.423.711.711 0 0 0 0 1.423z"/>
</symbol><symbol id="icon-profile" viewBox="0 0 17 18">
    <path fill-rule="evenodd" clip-rule="evenodd" d="M8.5.875a4.5 4.5 0 0 0-4.5 4.5v2a4.5 4.5 0 0 0 9 0v-2a4.5 4.5 0 0 0-4.5-4.5zM6 5.375a2.5 2.5 0 0 1 5 0v2a2.5 2.5 0 0 1-5 0v-2zM3.546 12.25a1 1 0 0 0-.968-1.75A5 5 0 0 0 0 14.875v2a1 1 0 0 0 1 1h15a1 1 0 0 0 1-1v-2a5 5 0 0 0-2.578-4.375 1 1 0 1 0-.969 1.75A3 3 0 0 1 15 14.875v1H2v-1a3 3 0 0 1 1.546-2.625z"/>
</symbol><symbol id="icon-send" viewBox="0 0 17 17">
    <path fill-rule="evenodd" clip-rule="evenodd" d="M16.707.668a1 1 0 0 1 .238 1.033l-5 14.5a1 1 0 0 1-1.853.093l-3-6.5a1 1 0 0 1 .2-1.126l3-3a1 1 0 1 1 1.415 1.414L9.2 9.59l1.666 3.608 3.52-10.207L4.178 6.51l2.223 1.025a1 1 0 1 1-.838 1.816L1.081 7.283a1 1 0 0 1 .093-1.853l14.5-5a1 1 0 0 1 1.033.238z"/>
</symbol>


<symbol id="icon-codepen" viewBox="0 0 128 128">
<path d="M125.571 39.926l-58.5-39c-1.997-1.23-4.128-1.24-6.142 0l-58.5 39C.929 40.926 0 42.712 0 44.497v39c0 1.786.929 3.572 2.429 4.571l58.5 39.006c1.996 1.229 4.128 1.24 6.142 0l58.5-39.006c1.5-.999 2.429-2.785 2.429-4.57v-39c0-1.786-.929-3.572-2.429-4.572zm-56.07-24.144l43.07 28.715-19.214 12.858L69.5 41.425V15.784zm-11.001 0v25.644L34.642 57.354 15.428 44.498 58.5 15.782zm-47.5 39l13.786 9.215L11 73.212v-18.43zm47.5 57.43L15.428 83.497 34.642 70.64 58.5 86.569v25.643zM64 76.997l-19.428-13 19.428-13 19.428 13-19.428 13zm5.5 35.215V86.569L93.357 70.64l19.214 12.857-43.07 28.715zm47.5-39l-13.786-9.215L117 54.783v18.429z"/></svg>
</symbol>

</svg>
